<svg width="147" height="31" viewBox="0 0 147 31" fill="none" xmlns="http://www.w3.org/2000/svg">
<g clip-path="url(#clip0_128_24683)">
<g filter="url(#filter0_dd_128_24683)">
<path d="M26.2057 1.51465H5.90931C3.27995 1.51465 1.14844 3.58103 1.14844 6.13003V25.6493C1.14844 28.1983 3.27995 30.2646 5.90931 30.2646H26.2057C28.835 30.2646 30.9666 28.1983 30.9666 25.6493V6.13003C30.9666 3.58103 28.835 1.51465 26.2057 1.51465Z" fill="black"/>
</g>
<path d="M26.2057 1.51465H5.90931C3.27995 1.51465 1.14844 3.58103 1.14844 6.13003V25.6493C1.14844 28.1983 3.27995 30.2646 5.90931 30.2646H26.2057C28.835 30.2646 30.9666 28.1983 30.9666 25.6493V6.13003C30.9666 3.58103 28.835 1.51465 26.2057 1.51465Z" fill="url(#paint0_linear_128_24683)"/>
<g filter="url(#filter1_dd_128_24683)">
<path d="M9.39216 8.83258C13.5579 4.81027 18.2926 4.95566 22.3092 8.83258L23.359 9.84566C27.5041 13.848 27.4533 18.3626 23.3582 22.3164L22.7051 22.9472C18.4815 27.0241 13.7412 26.7641 9.78732 22.9472L8.73834 21.9341C4.60194 17.9418 4.68208 13.3795 8.73834 9.46412L9.39216 8.83258ZM17.2333 18.2018H14.8814L14.8402 18.2072C14.8072 18.2158 14.7781 18.2347 14.7573 18.261C14.7365 18.2873 14.7252 18.3195 14.7251 18.3526V20.6195L14.7307 20.6595C14.7489 20.7234 14.81 20.7703 14.8814 20.7703H17.2333L17.2754 20.7649C17.3083 20.7562 17.3373 20.7373 17.358 20.711C17.3786 20.6847 17.3898 20.6526 17.3896 20.6195V18.3526L17.3841 18.3126C17.3752 18.2805 17.3555 18.2521 17.3283 18.232C17.301 18.2118 17.2676 18.2009 17.2333 18.201V18.2018ZM13.5071 18.2018H11.1473L11.1069 18.2064C11.0743 18.2156 11.0458 18.2349 11.0256 18.2613C11.0054 18.2877 10.9947 18.3197 10.995 18.3526V20.5195L10.9998 20.5695C11.0236 20.6849 11.1267 20.7695 11.2481 20.7695H13.5071L13.5468 20.7649C13.5794 20.7558 13.608 20.7368 13.6283 20.7105C13.6486 20.6843 13.6596 20.6523 13.6595 20.6195V18.3518L13.6539 18.3118C13.6454 18.2803 13.6264 18.2524 13.5999 18.2323C13.5733 18.2123 13.5408 18.2013 13.5071 18.201V18.2018ZM20.9627 18.2018H18.6116L18.5703 18.2064C18.5373 18.2152 18.5081 18.2342 18.4873 18.2607C18.4665 18.2871 18.4553 18.3194 18.4553 18.3526V20.6195L18.4608 20.6595C18.4791 20.7234 18.5402 20.7703 18.6116 20.7703H20.8595L20.9119 20.7649C20.9704 20.7532 21.023 20.7224 21.0609 20.6776C21.0987 20.6328 21.1195 20.5767 21.1198 20.5187V18.3518L21.1142 18.3118C21.1049 18.28 21.0852 18.252 21.058 18.232C21.0308 18.212 20.9976 18.2011 20.9635 18.201L20.9627 18.2018ZM13.504 14.6049H11.1505L11.1093 14.6103C11.0761 14.6189 11.0469 14.6379 11.0261 14.6644C11.0053 14.6908 10.9941 14.7232 10.9942 14.7564V17.0234L10.9998 17.0634C11.018 17.1272 11.0791 17.1734 11.1505 17.1734H13.5024L13.5444 17.168C13.5772 17.1594 13.6062 17.1405 13.6268 17.1144C13.6475 17.0883 13.6587 17.0563 13.6587 17.0234V14.7549L13.6531 14.7149C13.6441 14.6829 13.6244 14.6548 13.5971 14.6347C13.5699 14.6147 13.5366 14.6039 13.5024 14.6041L13.504 14.6049ZM20.9627 14.6049H18.6116L18.5703 14.6103C18.5373 14.619 18.5081 14.6381 18.4873 14.6645C18.4665 14.6909 18.4553 14.7232 18.4553 14.7564V17.0234L18.4608 17.0634C18.4791 17.1272 18.5402 17.1734 18.6116 17.1734H20.9635L21.0047 17.168C21.0376 17.1594 21.0666 17.1406 21.0874 17.1145C21.1082 17.0883 21.1196 17.0563 21.1198 17.0234V14.7549L21.1142 14.7149C21.105 14.683 21.0853 14.6549 21.0581 14.6349C21.0309 14.6149 20.9976 14.6041 20.9635 14.6041L20.9627 14.6049ZM17.2476 11.0087H11.2648L11.2108 11.0133C11.1511 11.0239 11.097 11.0542 11.0578 11.0991C11.0186 11.144 10.9966 11.2007 10.9958 11.2595V13.4257L11.0013 13.4664C11.0115 13.4988 11.0322 13.5271 11.0604 13.5471C11.0886 13.5671 11.1227 13.5777 11.1577 13.5772H14.7259V16.9141L14.7315 16.9657C14.7553 17.0841 14.8608 17.1734 14.9862 17.1734H17.2333L17.2754 17.168C17.3087 17.1583 17.3379 17.1385 17.3586 17.1115C17.3793 17.0845 17.3905 17.0517 17.3904 17.018V11.1587L17.3849 11.118C17.3774 11.0926 17.3631 11.0696 17.3435 11.0513C17.3238 11.0331 17.2995 11.0202 17.273 11.0141L17.2611 11.0103C17.2522 11.0088 17.2432 11.008 17.2341 11.008L17.2476 11.0087ZM18.7092 11.0287C18.6833 11.0147 18.6541 11.0074 18.6245 11.0077C18.5948 11.0079 18.5658 11.0156 18.5401 11.0301C18.5145 11.0445 18.4932 11.0652 18.4783 11.09C18.4634 11.1149 18.4555 11.1431 18.4553 11.1718V13.4126L18.4624 13.4564C18.4823 13.5257 18.5481 13.5772 18.6267 13.5772H20.95L20.9976 13.571C21.026 13.5631 21.0517 13.5481 21.0723 13.5276C21.0929 13.5071 21.1076 13.4817 21.115 13.4539C21.1224 13.4262 21.1221 13.3971 21.1143 13.3695C21.1066 13.3418 21.0915 13.3167 21.0706 13.2964L18.7473 11.0564L18.7092 11.0287Z" fill="black"/>
</g>
<path d="M9.39216 8.83258C13.5579 4.81027 18.2926 4.95566 22.3092 8.83258L23.359 9.84566C27.5041 13.848 27.4533 18.3626 23.3582 22.3164L22.7051 22.9472C18.4815 27.0241 13.7412 26.7641 9.78732 22.9472L8.73834 21.9341C4.60194 17.9418 4.68208 13.3795 8.73834 9.46412L9.39216 8.83258ZM17.2333 18.2018H14.8814L14.8402 18.2072C14.8072 18.2158 14.7781 18.2347 14.7573 18.261C14.7365 18.2873 14.7252 18.3195 14.7251 18.3526V20.6195L14.7307 20.6595C14.7489 20.7234 14.81 20.7703 14.8814 20.7703H17.2333L17.2754 20.7649C17.3083 20.7562 17.3373 20.7373 17.358 20.711C17.3786 20.6847 17.3898 20.6526 17.3896 20.6195V18.3526L17.3841 18.3126C17.3752 18.2805 17.3555 18.2521 17.3283 18.232C17.301 18.2118 17.2676 18.2009 17.2333 18.201V18.2018ZM13.5071 18.2018H11.1473L11.1069 18.2064C11.0743 18.2156 11.0458 18.2349 11.0256 18.2613C11.0054 18.2877 10.9947 18.3197 10.995 18.3526V20.5195L10.9998 20.5695C11.0236 20.6849 11.1267 20.7695 11.2481 20.7695H13.5071L13.5468 20.7649C13.5794 20.7558 13.608 20.7368 13.6283 20.7105C13.6486 20.6843 13.6596 20.6523 13.6595 20.6195V18.3518L13.6539 18.3118C13.6454 18.2803 13.6264 18.2524 13.5999 18.2323C13.5733 18.2123 13.5408 18.2013 13.5071 18.201V18.2018ZM20.9627 18.2018H18.6116L18.5703 18.2064C18.5373 18.2152 18.5081 18.2342 18.4873 18.2607C18.4665 18.2871 18.4553 18.3194 18.4553 18.3526V20.6195L18.4608 20.6595C18.4791 20.7234 18.5402 20.7703 18.6116 20.7703H20.8595L20.9119 20.7649C20.9704 20.7532 21.023 20.7224 21.0609 20.6776C21.0987 20.6328 21.1195 20.5767 21.1198 20.5187V18.3518L21.1142 18.3118C21.1049 18.28 21.0852 18.252 21.058 18.232C21.0308 18.212 20.9976 18.2011 20.9635 18.201L20.9627 18.2018ZM13.504 14.6049H11.1505L11.1093 14.6103C11.0761 14.6189 11.0469 14.6379 11.0261 14.6644C11.0053 14.6908 10.9941 14.7232 10.9942 14.7564V17.0234L10.9998 17.0634C11.018 17.1272 11.0791 17.1734 11.1505 17.1734H13.5024L13.5444 17.168C13.5772 17.1594 13.6062 17.1405 13.6268 17.1144C13.6475 17.0883 13.6587 17.0563 13.6587 17.0234V14.7549L13.6531 14.7149C13.6441 14.6829 13.6244 14.6548 13.5971 14.6347C13.5699 14.6147 13.5366 14.6039 13.5024 14.6041L13.504 14.6049ZM20.9627 14.6049H18.6116L18.5703 14.6103C18.5373 14.619 18.5081 14.6381 18.4873 14.6645C18.4665 14.6909 18.4553 14.7232 18.4553 14.7564V17.0234L18.4608 17.0634C18.4791 17.1272 18.5402 17.1734 18.6116 17.1734H20.9635L21.0047 17.168C21.0376 17.1594 21.0666 17.1406 21.0874 17.1145C21.1082 17.0883 21.1196 17.0563 21.1198 17.0234V14.7549L21.1142 14.7149C21.105 14.683 21.0853 14.6549 21.0581 14.6349C21.0309 14.6149 20.9976 14.6041 20.9635 14.6041L20.9627 14.6049ZM17.2476 11.0087H11.2648L11.2108 11.0133C11.1511 11.0239 11.097 11.0542 11.0578 11.0991C11.0186 11.144 10.9966 11.2007 10.9958 11.2595V13.4257L11.0013 13.4664C11.0115 13.4988 11.0322 13.5271 11.0604 13.5471C11.0886 13.5671 11.1227 13.5777 11.1577 13.5772H14.7259V16.9141L14.7315 16.9657C14.7553 17.0841 14.8608 17.1734 14.9862 17.1734H17.2333L17.2754 17.168C17.3087 17.1583 17.3379 17.1385 17.3586 17.1115C17.3793 17.0845 17.3905 17.0517 17.3904 17.018V11.1587L17.3849 11.118C17.3774 11.0926 17.3631 11.0696 17.3435 11.0513C17.3238 11.0331 17.2995 11.0202 17.273 11.0141L17.2611 11.0103C17.2522 11.0088 17.2432 11.008 17.2341 11.008L17.2476 11.0087ZM18.7092 11.0287C18.6833 11.0147 18.6541 11.0074 18.6245 11.0077C18.5948 11.0079 18.5658 11.0156 18.5401 11.0301C18.5145 11.0445 18.4932 11.0652 18.4783 11.09C18.4634 11.1149 18.4555 11.1431 18.4553 11.1718V13.4126L18.4624 13.4564C18.4823 13.5257 18.5481 13.5772 18.6267 13.5772H20.95L20.9976 13.571C21.026 13.5631 21.0517 13.5481 21.0723 13.5276C21.0929 13.5071 21.1076 13.4817 21.115 13.4539C21.1224 13.4262 21.1221 13.3971 21.1143 13.3695C21.1066 13.3418 21.0915 13.3167 21.0706 13.2964L18.7473 11.0564L18.7092 11.0287Z" fill="white"/>
<path fill-rule="evenodd" clip-rule="evenodd" d="M140.033 14.3047V17.2893H140.593C140.593 17.2431 140.632 17.2055 140.68 17.2055H145.015C145.038 17.2055 145.06 17.1966 145.076 17.1809C145.092 17.1652 145.102 17.1439 145.102 17.1216V14.4716C145.102 14.4494 145.092 14.4283 145.076 14.4128C145.059 14.3972 145.038 14.3885 145.015 14.3885H140.681C140.658 14.3885 140.636 14.3797 140.619 14.364C140.603 14.3483 140.594 14.327 140.593 14.3047H140.034H140.033Z" fill="url(#paint1_linear_128_24683)"/>
<path opacity="0.1" fill-rule="evenodd" clip-rule="evenodd" d="M140.78 17.2288H140.68C140.658 17.229 140.638 17.237 140.622 17.2512C140.607 17.2655 140.597 17.285 140.596 17.3057V14.335L140.779 17.2296L140.78 17.2288Z" fill="black"/>
<path fill-rule="evenodd" clip-rule="evenodd" d="M145.818 19.3157H140.679C140.656 19.3157 140.634 19.307 140.618 19.2915C140.601 19.2759 140.592 19.2548 140.592 19.2326V12.4865C140.592 12.4403 140.631 12.4019 140.679 12.4019H145.818C145.838 12.4019 145.857 12.3953 145.873 12.3831C145.888 12.371 145.899 12.3539 145.903 12.3349L146.436 9.7211C146.438 9.70888 146.438 9.69629 146.435 9.68422C146.431 9.67216 146.426 9.66094 146.417 9.65136C146.409 9.64179 146.399 9.6341 146.387 9.62887C146.375 9.62363 146.363 9.62098 146.35 9.6211H137.162C137.138 9.6211 137.116 9.62991 137.1 9.64561C137.084 9.66131 137.074 9.68264 137.074 9.70494V21.9065C137.074 21.9526 137.112 21.9903 137.162 21.9903H146.35C146.405 21.9903 146.445 21.9419 146.435 21.8903L145.903 19.3826C145.899 19.3636 145.888 19.3466 145.873 19.3344C145.857 19.3222 145.838 19.3156 145.818 19.3157Z" fill="#073E4F"/>
<path fill-rule="evenodd" clip-rule="evenodd" d="M122.579 9.71777C122.568 9.73958 122.563 9.76352 122.562 9.78777V21.8232C122.562 21.9155 122.64 21.9901 122.737 21.9901H125.828C125.924 21.9901 126.003 21.9155 126.003 21.8232V15.7178C126.003 15.6332 126.118 15.6062 126.162 15.6762H126.298L123.483 9.71777H122.579Z" fill="url(#paint2_linear_128_24683)"/>
<path fill-rule="evenodd" clip-rule="evenodd" d="M133.237 9.6211H130.205C130.182 9.6209 130.159 9.62506 130.138 9.63335C130.117 9.64164 130.098 9.65389 130.082 9.6694C130.065 9.68491 130.052 9.70337 130.044 9.72373C130.035 9.74409 130.03 9.76594 130.03 9.78802V15.5765C130.03 15.6496 129.946 15.6765 129.894 15.6396C129.883 15.6319 129.871 15.6265 129.865 15.6134L126.247 9.71341C126.232 9.6855 126.21 9.6621 126.182 9.6458C126.154 9.6295 126.123 9.62095 126.09 9.6211H122.737C122.704 9.62105 122.672 9.63014 122.644 9.64732C122.616 9.66449 122.594 9.68902 122.58 9.71802L126.163 15.6765C126.164 15.6788 126.167 15.6788 126.168 15.6811L129.904 21.8965C129.918 21.9247 129.941 21.9484 129.968 21.965C129.996 21.9816 130.028 21.9903 130.06 21.9903H133.237C133.333 21.9903 133.412 21.9149 133.412 21.8234V9.78802C133.412 9.76594 133.407 9.74409 133.398 9.72373C133.389 9.70337 133.377 9.68491 133.36 9.6694C133.344 9.65389 133.325 9.64164 133.304 9.63335C133.283 9.62506 133.26 9.6209 133.237 9.6211Z" fill="#073E4F"/>
<path opacity="0.1" fill-rule="evenodd" clip-rule="evenodd" d="M122.585 9.7334L122.574 9.73955C122.569 9.75494 126.002 15.7665 126.002 15.7665V15.7172C126.002 15.6349 126.111 15.6088 126.158 15.6711L122.585 9.7334Z" fill="black"/>
<path fill-rule="evenodd" clip-rule="evenodd" d="M115.823 17.283C115.823 18.7446 115.315 19.4753 113.693 19.4753C112.05 19.4753 111.561 18.7446 111.561 17.283V14.4169C111.561 12.9369 112.05 12.2246 113.693 12.2246C115.314 12.2246 115.823 12.9369 115.823 14.4169V17.283ZM113.693 9.45996C110.311 9.45996 108.043 10.8869 108.043 14.0246V17.5861C108.043 20.7061 110.291 22.15 113.693 22.15C117.074 22.15 119.321 20.7061 119.321 17.5861V14.0246C119.321 10.8869 117.074 9.46073 113.693 9.46073V9.45996Z" fill="#073E4F"/>
<path fill-rule="evenodd" clip-rule="evenodd" d="M94.1941 9.6211C94.1481 9.6209 94.104 9.63834 94.0713 9.66963C94.0386 9.70091 94.02 9.74348 94.0195 9.78802V21.8234C94.0195 21.9157 94.0981 21.9903 94.1941 21.9903H97.364C97.4593 21.9903 97.5386 21.9157 97.5386 21.8234V17.4365C97.5386 17.3442 97.6164 17.2696 97.7132 17.2696H101.175C101.238 17.2696 101.283 17.3065 101.314 17.3534C101.331 17.3788 101.35 17.4042 101.35 17.4365H101.909V14.1788H101.35C101.35 14.2249 101.331 14.2665 101.299 14.2973C101.266 14.3285 101.221 14.3459 101.175 14.3457H97.7124C97.6896 14.3459 97.667 14.3418 97.6459 14.3335C97.6248 14.3252 97.6055 14.3129 97.5893 14.2974C97.5731 14.2819 97.5602 14.2634 97.5514 14.2431C97.5425 14.2227 97.5379 14.2009 97.5378 14.1788V9.78802C97.5377 9.76594 97.5331 9.74409 97.5243 9.72373C97.5154 9.70337 97.5025 9.68491 97.4863 9.6694C97.4701 9.65389 97.4509 9.64164 97.4298 9.63335C97.4086 9.62506 97.386 9.6209 97.3633 9.6211H94.1949H94.1941Z" fill="url(#paint3_linear_128_24683)"/>
<path fill-rule="evenodd" clip-rule="evenodd" d="M104.693 9.6211H101.524C101.501 9.6209 101.479 9.62506 101.458 9.63335C101.437 9.64164 101.417 9.65389 101.401 9.6694C101.385 9.68491 101.372 9.70337 101.363 9.72373C101.354 9.74409 101.35 9.76594 101.35 9.78802V21.8234C101.35 21.9157 101.427 21.9903 101.524 21.9903H104.693C104.79 21.9903 104.868 21.9149 104.868 21.8234V9.78802C104.867 9.74348 104.849 9.70091 104.816 9.66963C104.783 9.63834 104.739 9.6209 104.693 9.6211Z" fill="#073E4F"/>
<path fill-rule="evenodd" clip-rule="evenodd" d="M83.3652 9.63846V12.4969H83.9246C83.9246 12.4046 84.0024 12.3308 84.0992 12.3308H85.9377C87.2668 12.3308 87.6191 12.7046 87.6191 13.7215V14.0469C87.6191 15.0623 87.2668 15.4369 85.9377 15.4369H84.1C84.0772 15.4371 84.0546 15.433 84.0335 15.4247C84.0124 15.4164 83.9932 15.4041 83.9769 15.3886C83.9607 15.3731 83.9478 15.3547 83.939 15.3343C83.9301 15.3139 83.9255 15.2921 83.9254 15.27H83.366V18.1531H83.9254C83.9254 18.0608 84.0032 17.9869 84.1 17.9869H85.8218C89.5155 17.9869 91.0009 16.7562 91.0009 14.2254V13.3638C91.0009 10.8331 89.5155 9.6377 85.821 9.6377H83.3652V9.63846Z" fill="url(#paint4_linear_128_24683)"/>
<path fill-rule="evenodd" clip-rule="evenodd" d="M83.9245 12.4971V9.63867H80.5808C80.5349 9.63847 80.4907 9.65592 80.458 9.6872C80.4253 9.71848 80.4067 9.76105 80.4062 9.8056V21.5048C80.4062 21.9318 80.4848 22.0064 80.5808 22.0064H83.75C83.8468 22.0064 83.9245 21.9318 83.9245 21.8394V12.4971Z" fill="#073E4F"/>
<path opacity="0.1" fill-rule="evenodd" clip-rule="evenodd" d="M84.0976 17.9865C84.0749 17.9864 84.0524 17.9906 84.0313 17.9989C84.0103 18.0073 83.9912 18.0195 83.9751 18.035C83.9589 18.0505 83.9461 18.069 83.9373 18.0893C83.9285 18.1096 83.9239 18.1314 83.9238 18.1534V15.2695L84.0984 17.9865H84.0976Z" fill="black"/>
<path fill-rule="evenodd" clip-rule="evenodd" d="M76.8033 9.6211H73.6531C73.6303 9.621 73.6077 9.62526 73.5866 9.63363C73.5655 9.642 73.5462 9.65433 73.53 9.6699C73.5138 9.68547 73.5009 9.70398 73.4921 9.72438C73.4833 9.74478 73.4787 9.76667 73.4786 9.78879V17.248C73.4786 18.6919 73.2056 19.4226 71.5631 19.4226C69.9413 19.4226 69.6477 18.6919 69.6477 17.248V9.78879C69.6477 9.76664 69.6432 9.74471 69.6344 9.72426C69.6256 9.70382 69.6127 9.68526 69.5964 9.66967C69.5802 9.65408 69.561 9.64176 69.5398 9.63342C69.5186 9.62509 69.496 9.6209 69.4731 9.6211H66.323C66.3002 9.6209 66.2775 9.62509 66.2563 9.63342C66.2352 9.64176 66.2159 9.65408 66.1997 9.66967C66.1834 9.68526 66.1705 9.70382 66.1618 9.72426C66.153 9.74471 66.1484 9.76664 66.1484 9.78879V17.5865C66.1484 20.7065 68.1623 22.1503 71.5631 22.1503C74.9449 22.1503 76.9778 20.7065 76.9778 17.5865V9.78956C76.9778 9.76741 76.9733 9.74548 76.9645 9.72503C76.9557 9.70459 76.9428 9.68603 76.9266 9.67044C76.9104 9.65485 76.8911 9.64253 76.8699 9.63419C76.8488 9.62585 76.8261 9.62167 76.8033 9.62187" fill="#073E4F"/>
<path fill-rule="evenodd" clip-rule="evenodd" d="M55.6729 9.64355V12.5028H56.2323C56.2323 12.4105 56.31 12.3359 56.4068 12.3359H58.1675C59.4966 12.3359 59.8481 12.7097 59.8481 13.7266V13.9982C59.8481 15.0328 59.4966 15.3889 58.1675 15.3889H56.406C56.3832 15.3891 56.3606 15.385 56.3395 15.3767C56.3184 15.3684 56.2992 15.3562 56.283 15.3406C56.2667 15.3251 56.2538 15.3067 56.245 15.2863C56.2362 15.266 56.2316 15.2441 56.2315 15.222H55.6736V18.0874H56.233C56.233 17.9951 56.3108 17.9205 56.4076 17.9205H57.4352C57.4672 17.9203 57.4986 17.9287 57.5261 17.9447C57.5535 17.9607 57.5758 17.9837 57.5907 18.0112L60.0536 21.922C60.0684 21.9494 60.0907 21.9723 60.1179 21.9883C60.1452 22.0043 60.1765 22.0128 60.2084 22.0128H63.4926C63.6227 22.0128 63.7068 21.8805 63.6481 21.7697L61.0058 17.4843C61.0004 17.474 60.9972 17.4626 60.9966 17.451C60.996 17.4394 60.998 17.4278 61.0023 17.417C61.0066 17.4062 61.0133 17.3964 61.0218 17.3882C61.0304 17.3801 61.0406 17.3738 61.0518 17.3697C62.7753 16.7043 63.1911 15.5451 63.1911 14.2297V13.3697C63.1911 10.8382 61.7445 9.64355 58.0493 9.64355H55.6736H55.6729Z" fill="url(#paint5_linear_128_24683)"/>
<path fill-rule="evenodd" clip-rule="evenodd" d="M56.2321 12.5026V9.64259H52.8884C52.8657 9.64238 52.8431 9.64654 52.8219 9.65483C52.8008 9.66312 52.7816 9.67537 52.7654 9.69088C52.7492 9.70639 52.7362 9.72486 52.7274 9.74521C52.7186 9.76557 52.714 9.78742 52.7139 9.80951V21.5103C52.7139 21.9364 52.7916 22.011 52.8884 22.011H56.0576C56.1544 22.011 56.2321 21.9364 56.2321 21.8441V12.5026Z" fill="#073E4F"/>
<path opacity="0.1" fill-rule="evenodd" clip-rule="evenodd" d="M56.4062 12.3349H56.5117L56.2324 9.64258V12.5026C56.2324 12.4103 56.3102 12.3349 56.407 12.3349H56.4062ZM56.5125 17.9195C56.5125 17.9195 56.2324 15.3141 56.2324 15.2218V18.0872C56.2324 17.9949 56.3102 17.9203 56.407 17.9203H56.5117L56.5125 17.9195Z" fill="black"/>
<path fill-rule="evenodd" clip-rule="evenodd" d="M46.0977 9.66602C46.1937 9.66602 46.2723 9.7414 46.2723 9.83371V21.8683C46.2723 21.9606 46.1937 22.0352 46.0977 22.0352H42.9278C42.905 22.0354 42.8824 22.0313 42.8613 22.023C42.8402 22.0147 42.8209 22.0025 42.8047 21.987C42.7885 21.9714 42.7756 21.953 42.7668 21.9326C42.7579 21.9123 42.7533 21.8904 42.7532 21.8683V12.4476H39.2722C39.2494 12.4478 39.2268 12.4436 39.2057 12.4353C39.1846 12.427 39.1654 12.4148 39.1492 12.3993C39.1329 12.3837 39.12 12.3653 39.1112 12.3449C39.1024 12.3246 39.0978 12.3027 39.0977 12.2806V9.83371C39.0977 9.7414 39.177 9.66679 39.2722 9.66679L46.0977 9.66602ZM50.1016 9.66602C50.1976 9.66602 50.2762 9.7414 50.2762 9.83371V12.2806C50.2762 12.3729 50.1976 12.4476 50.1016 12.4476H47.4919C47.4693 12.4477 47.4468 12.4434 47.4259 12.4351C47.405 12.4268 47.3859 12.4146 47.3699 12.3992C47.3538 12.3838 47.341 12.3654 47.3323 12.3452C47.3235 12.325 47.319 12.3033 47.3189 12.2814V9.83217C47.3189 9.74063 47.3966 9.66679 47.4919 9.66679L50.1016 9.66602Z" fill="#073E4F"/>
</g>
<defs>
<filter id="filter0_dd_128_24683" x="-6.85156" y="-6.48535" width="49.8184" height="48.75" filterUnits="userSpaceOnUse" color-interpolation-filters="sRGB">
<feFlood flood-opacity="0" result="BackgroundImageFix"/>
<feColorMatrix in="SourceAlpha" type="matrix" values="0 0 0 0 0 0 0 0 0 0 0 0 0 0 0 0 0 0 127 0" result="hardAlpha"/>
<feOffset dx="2" dy="2"/>
<feGaussianBlur stdDeviation="5"/>
<feColorMatrix type="matrix" values="0 0 0 0 0.160784 0 0 0 0 0.615686 0 0 0 0 0.756863 0 0 0 0.3 0"/>
<feBlend mode="normal" in2="BackgroundImageFix" result="effect1_dropShadow_128_24683"/>
<feColorMatrix in="SourceAlpha" type="matrix" values="0 0 0 0 0 0 0 0 0 0 0 0 0 0 0 0 0 0 127 0" result="hardAlpha"/>
<feOffset dy="1"/>
<feGaussianBlur stdDeviation="1.5"/>
<feColorMatrix type="matrix" values="0 0 0 0 0.160784 0 0 0 0 0.615686 0 0 0 0 0.756863 0 0 0 0.3 0"/>
<feBlend mode="normal" in2="effect1_dropShadow_128_24683" result="effect2_dropShadow_128_24683"/>
<feBlend mode="normal" in="SourceGraphic" in2="effect2_dropShadow_128_24683" result="shape"/>
</filter>
<filter id="filter1_dd_128_24683" x="0.666016" y="1.87012" width="30.7822" height="30.0381" filterUnits="userSpaceOnUse" color-interpolation-filters="sRGB">
<feFlood flood-opacity="0" result="BackgroundImageFix"/>
<feColorMatrix in="SourceAlpha" type="matrix" values="0 0 0 0 0 0 0 0 0 0 0 0 0 0 0 0 0 0 127 0" result="hardAlpha"/>
<feOffset/>
<feGaussianBlur stdDeviation="0.5"/>
<feColorMatrix type="matrix" values="0 0 0 0 0 0 0 0 0 0 0 0 0 0 0 0 0 0 0.08 0"/>
<feBlend mode="normal" in2="BackgroundImageFix" result="effect1_dropShadow_128_24683"/>
<feColorMatrix in="SourceAlpha" type="matrix" values="0 0 0 0 0 0 0 0 0 0 0 0 0 0 0 0 0 0 127 0" result="hardAlpha"/>
<feOffset dy="1"/>
<feGaussianBlur stdDeviation="2.5"/>
<feColorMatrix type="matrix" values="0 0 0 0 0 0 0 0 0 0 0 0 0 0 0 0 0 0 0.05 0"/>
<feBlend mode="normal" in2="effect1_dropShadow_128_24683" result="effect2_dropShadow_128_24683"/>
<feBlend mode="normal" in="SourceGraphic" in2="effect2_dropShadow_128_24683" result="shape"/>
</filter>
<linearGradient id="paint0_linear_128_24683" x1="1.14844" y1="1.67047" x2="29.8907" y2="31.1575" gradientUnits="userSpaceOnUse">
<stop stop-color="#16BCE6"/>
<stop offset="1" stop-color="#299DC1"/>
</linearGradient>
<linearGradient id="paint1_linear_128_24683" x1="140.033" y1="15.7969" x2="145.102" y2="15.7969" gradientUnits="userSpaceOnUse">
<stop stop-color="#00313F"/>
<stop offset="1" stop-color="#073D4F"/>
</linearGradient>
<linearGradient id="paint2_linear_128_24683" x1="124.43" y1="11.4476" x2="124.43" y2="17.9434" gradientUnits="userSpaceOnUse">
<stop stop-color="#00313F"/>
<stop offset="1" stop-color="#073D4F"/>
</linearGradient>
<linearGradient id="paint3_linear_128_24683" x1="102.146" y1="15.8056" x2="93.4161" y2="15.8056" gradientUnits="userSpaceOnUse">
<stop stop-color="#00313F"/>
<stop offset="1" stop-color="#073D4F"/>
</linearGradient>
<linearGradient id="paint4_linear_128_24683" x1="87.1831" y1="21.7134" x2="87.1831" y2="13.0074" gradientUnits="userSpaceOnUse">
<stop stop-color="#00313F"/>
<stop offset="1" stop-color="#073D4F"/>
</linearGradient>
<linearGradient id="paint5_linear_128_24683" x1="57.0805" y1="19.4749" x2="62.0322" y2="16.5338" gradientUnits="userSpaceOnUse">
<stop stop-color="#00313F"/>
<stop offset="1" stop-color="#073D4F"/>
</linearGradient>
<clipPath id="clip0_128_24683">
<rect width="146" height="30" fill="white" transform="translate(0.5 0.889648)"/>
</clipPath>
</defs>
</svg>
