<svg width="287" height="286" viewBox="0 0 287 286" fill="none" xmlns="http://www.w3.org/2000/svg">
<path d="M184.311 137.302C165.149 148.713 141.773 135.268 142.872 135.034C179.096 127.158 182.297 104.304 182.297 104.304C175.065 86.6343 155.352 92.3227 155.352 92.3227C154.782 117.398 124.937 118.81 124.937 118.81C123.019 110.674 123.125 91.678 123.125 91.678C114.079 85.3534 112.248 88.0379 112.248 88.0379C115.1 62.9338 126.588 54.8405 126.588 54.8405C128.502 53.0576 137.058 49.0495 141.451 48.5303L141.608 49.2263C141.608 49.2263 137.166 60.3178 145.679 61.0481C152.842 61.6757 156.913 52.8579 158.023 50.0593C167.337 52.9463 176.226 59.4078 182.14 70.2767C196.13 95.9913 184.311 137.302 184.311 137.302Z" fill="#2E2E2E"/>
<path d="M186.381 126.481L232.941 157.291C241.97 163.265 240.809 176.861 230.907 181.217L176.42 205.197C171.352 207.427 165.796 208.315 160.286 207.776C154.777 207.237 149.499 205.288 144.96 202.119L124.035 187.49" stroke="black" stroke-width="3.03284" stroke-miterlimit="10"/>
<path d="M186.381 136.418L184.815 135.38L232.949 167.222C241.978 173.196 240.817 186.792 230.915 191.148L176.427 215.128C171.36 217.358 165.804 218.246 160.294 217.707C154.785 217.167 149.506 215.22 144.967 212.05L118.363 193.102" stroke="black" stroke-width="3.03284" stroke-miterlimit="10"/>
<path d="M226.899 179.517L176.819 201.56C172.162 203.608 167.056 204.424 161.993 203.928C156.929 203.433 152.078 201.642 147.907 198.73L128.716 185.248C131.359 183.223 134.319 181.651 137.477 180.598C145.388 177.911 153.108 174.692 160.584 170.964C166.26 168.156 171.245 164.13 175.184 159.173C179.123 154.215 181.919 148.449 183.372 142.285C184.376 138.021 185.258 133.707 185.979 129.371L230.054 158.506C238.35 163.995 235.996 175.517 226.899 179.517Z" fill="#B29DD5"/>
<path d="M97.8555 243.401C97.8555 243.401 106.636 239.761 108.319 237.017C108.319 237.017 108.636 243.247 106.993 245.375C105.35 247.503 95.5305 253.129 95.0027 252.424C94.475 251.72 97.8555 243.401 97.8555 243.401Z" fill="#B29DD5"/>
<path d="M70.8262 258.247C70.8262 258.247 72.4238 260.415 78.0922 258.247C83.7606 256.079 96.093 248.094 96.093 248.094C96.093 248.094 92.6526 257.331 91.4059 258.347C90.1593 259.362 66.607 270.899 66.607 270.899C66.607 270.899 56.0776 272.396 60.0457 264.908L70.8262 258.247Z" fill="#B29DD5"/>
<path d="M104.722 137.554C91.7422 142.606 78.0063 154.476 81.9573 187.348L83.0556 195.889" stroke="black" stroke-width="3.03284" stroke-miterlimit="10"/>
<path d="M104.702 116.087C106.824 113.057 108.741 109.782 109.916 106.256C111.092 102.73 111.152 98.9102 111.48 95.2017C112.353 85.257 113.705 77.0326 117.542 67.7697C120.865 59.7535 130.904 49.4266 140.892 48.4481L141.79 48.3711" stroke="black" stroke-width="3.03284" stroke-miterlimit="10"/>
<path d="M129.806 136.826C129.758 136.686 129.709 136.555 129.658 136.418" stroke="black" stroke-width="3.03284" stroke-miterlimit="10"/>
<path d="M124.937 118.194C124.446 115.31 124.081 112.514 123.796 109.861C123.797 109.811 123.791 109.762 123.779 109.713C122.284 94.8987 123.796 84.1211 123.796 84.1211" stroke="black" stroke-width="3.03284" stroke-miterlimit="10"/>
<path d="M159.828 28.2813L157.546 29.1715C157.546 29.2428 157.546 30.1329 157.449 31.3795C157.343 32.8684 157.106 34.3452 156.742 35.7927C156.944 34.8057 157.238 32.4607 155.949 30.829C155.929 30.7956 155.905 30.7639 155.88 30.7348C155.024 29.705 153.969 30.1129 153.121 30.8204C152.536 31.3153 152.025 31.8919 151.604 32.532C151.752 30.6261 151.41 28.7142 150.611 26.9776C150.09 25.793 149.399 24.6907 148.56 23.7055C149.852 28.1558 148.195 31.0686 148.195 31.0686C143.816 32.0984 140.778 31.8788 138.513 31.4879C136.604 29.7078 137.266 23.2976 137.266 23.2976C135.346 24.8666 135.808 30.9374 135.808 30.9374C135.563 29.3532 135.593 27.7386 135.897 26.1646C134.943 27.5133 134.392 29.105 134.308 30.7548L134.273 30.7377C134.141 30.7037 134.011 30.6626 133.883 30.615C133.648 30.4912 133.42 30.3543 133.201 30.2042L131.937 29.3484C133.845 19.6119 140.518 13.4899 150.828 15.2871C151.501 15.4031 152.163 15.5748 152.808 15.8006C159.6 19.3409 159.828 28.2813 159.828 28.2813Z" fill="#B29DD5"/>
<path d="M100.993 123.107L98.3938 115.285C98.3365 115.103 98.2335 114.938 98.0946 114.807C97.9559 114.676 97.7859 114.582 97.6008 114.534C97.578 114.534 97.5523 114.534 97.5266 114.517C97.5009 114.5 97.4952 114.517 97.4781 114.517C97.4185 114.513 97.3583 114.513 97.2984 114.517C97.0103 114.518 96.733 114.628 96.5224 114.825C96.3116 115.02 96.143 115.257 96.0278 115.52C95.9122 115.783 95.8526 116.067 95.8521 116.355C95.8523 116.579 95.888 116.803 95.9576 117.016C96.5281 118.668 97.5437 121.649 98.0258 123.007" fill="#B29DD5"/>
<path d="M100.406 123.107L97.6043 114.535C97.5815 114.535 97.5558 114.535 97.5301 114.517C97.5044 114.5 97.4987 114.517 97.4816 114.517L96.0125 114.232C95.228 114.087 94.4435 113.93 93.659 113.784C92.7175 113.596 91.7704 113.439 90.8319 113.214C90.6102 113.151 90.3826 113.113 90.1529 113.1C89.8637 113.099 89.5855 113.21 89.377 113.411C89.1642 113.605 88.9944 113.842 88.8789 114.107C88.7634 114.371 88.7049 114.657 88.7066 114.945C88.7052 115.168 88.7408 115.388 88.8121 115.599C89.4426 117.447 90.6436 120.945 91.0259 122.006L100.406 123.107Z" fill="#B29DD5"/>
<path d="M155.795 84.1191C155.509 87.2942 155.361 91.1368 155.261 95.9665C155.261 106.236 143.908 114.74 133.817 116.686L115.315 120.865C112.87 121.339 110.704 119.813 109.004 118.8C107.255 117.759 105.464 116.518 104.203 115.596C102.389 114.27 98.8939 115.337 99.61 118.5C99.7643 119.102 100.056 119.66 100.461 120.13C100.866 120.601 101.374 120.972 101.946 121.213C102.269 121.358 102.6 121.48 102.939 121.578C103.065 121.61 103.178 121.683 103.259 121.785C103.339 121.887 103.384 122.012 103.386 122.142C103.388 122.272 103.347 122.4 103.269 122.504C103.192 122.609 103.081 122.684 102.957 122.719C101.353 123.273 98.4175 123.601 93.682 121.864C87.6142 119.63 87.1438 133.477 95.4395 135.888H95.4709C103.113 138.198 111.338 137.902 119.237 137.571C128.207 137.231 137.133 136.142 145.921 134.316C150.392 133.369 154.984 132.385 159.075 130.362C166.122 126.879 171.2 122.885 176.029 116.669C181.45 109.7 183.763 100.557 185.069 91.9841C186.564 82.1764 184.499 73.8949 179.241 65.4536L179.047 65.1455" stroke="black" stroke-width="3.03284" stroke-miterlimit="10"/>
<path d="M100.993 123.107L98.3938 115.285C98.3365 115.103 98.2335 114.938 98.0946 114.807C97.9559 114.676 97.7859 114.582 97.6008 114.534C97.578 114.534 97.5523 114.534 97.5266 114.517C97.5009 114.5 97.4952 114.517 97.4781 114.517C97.4185 114.513 97.3583 114.513 97.2984 114.517C97.0103 114.518 96.733 114.628 96.5224 114.825C96.3116 115.02 96.143 115.257 96.0278 115.52C95.9122 115.783 95.8526 116.067 95.8521 116.355C95.8523 116.579 95.888 116.803 95.9576 117.016C96.5281 118.668 97.5437 121.649 98.0258 123.007" stroke="black" stroke-width="3.03284" stroke-miterlimit="10"/>
<path d="M97.6043 114.535C97.5815 114.535 97.5558 114.535 97.5301 114.517C97.5044 114.5 97.4987 114.517 97.4816 114.517L96.0124 114.232C95.2279 114.087 94.4434 113.93 93.6589 113.784C92.7175 113.596 91.7704 113.439 90.8319 113.214C90.6102 113.151 90.3826 113.113 90.1529 113.1C89.8637 113.099 89.5855 113.21 89.377 113.411C89.1642 113.605 88.9944 113.842 88.8789 114.107C88.7634 114.371 88.7049 114.657 88.7066 114.945C88.7052 115.168 88.7408 115.388 88.8121 115.599C89.4426 117.447 90.6436 120.945 91.0259 122.006" stroke="black" stroke-width="3.03284" stroke-miterlimit="10"/>
<path d="M133.421 30.4756C133.421 34.1841 134.143 37.7301 135.923 41.0051C137.35 43.6353 139.444 46.2855 142.439 47.1556C143.103 47.347 143.791 47.4431 144.481 47.4408C149.565 47.418 150.358 41.3959 150.358 41.3959" stroke="black" stroke-width="3.03284" stroke-miterlimit="10"/>
<path d="M157.278 32.627V32.6441C157.042 34.4841 156.637 36.2987 156.068 38.0643C155.388 40.1705 155.228 42.4099 155.6 44.5913L156.39 49.1871C156.426 49.3919 156.519 49.5825 156.659 49.7368C156.798 49.8912 156.978 50.0033 157.178 50.06C167.208 52.9727 176.111 59.3999 181.292 68.6799C187.753 80.2677 188.932 94.2233 188.41 107.232C187.95 118.509 186.127 129.72 183.54 140.694C181.958 147.402 178.915 153.677 174.628 159.073C170.34 164.468 164.915 168.85 158.738 171.906C150.61 175.965 142.216 179.467 133.614 182.39C129.06 183.898 124.9 186.402 121.436 189.72C117.971 193.037 115.289 197.085 113.585 201.569L93.3705 255.32C92.6274 257.305 91.1622 258.935 89.2683 259.885L69.8982 269.615C67.452 270.84 64.6617 271.194 61.9876 270.62C61.2941 270.47 60.6619 270.115 60.1729 269.601C59.6843 269.087 59.3616 268.438 59.2469 267.738C59.1325 267.037 59.2315 266.319 59.5311 265.676C59.8306 265.033 60.3167 264.495 60.9263 264.133L70.8196 258.247L84.4244 188.892C85.3817 182.704 87.6676 176.797 91.1252 171.577C94.5827 166.357 99.1297 161.948 104.453 158.652C105.163 158.22 105.903 157.839 106.667 157.511L136.159 144.705" stroke="black" stroke-width="3.03284" stroke-miterlimit="10"/>
<path d="M149.17 14.6177C147.593 14.2419 145.961 14.1587 144.355 14.3723C144.289 14.3738 144.223 14.3795 144.158 14.3895" stroke="black" stroke-width="3.03284" stroke-miterlimit="10"/>
<path d="M142.028 48.5391C142.028 48.5391 136.81 60.5006 146.142 61.0911C154.514 61.6274 157.587 50.2507 157.587 50.2507" stroke="black" stroke-width="3.03284" stroke-miterlimit="10"/>
<path d="M156.622 36.2298C156.682 36.0102 157.581 32.7666 155.864 30.724C154.146 28.6815 151.818 32.1846 151.584 32.5355C152.041 27.5062 148.546 23.6921 148.546 23.6921C149.836 28.1453 148.175 31.0549 148.175 31.0549C141.794 32.5498 138.282 31.4115 135.792 30.9209C135.547 29.3376 135.578 27.724 135.883 26.1512C134.927 27.4964 134.375 29.0871 134.294 30.7354H134.254C133.306 30.4835 132.407 30.0736 131.595 29.523L130.332 28.6672C132.243 18.9338 138.913 12.8061 149.222 14.6033C159.532 16.4005 159.82 28.2565 159.82 28.2565L157.524 29.1493C157.524 29.1493 157.544 33.0633 156.622 36.2298Z" stroke="black" stroke-width="3.03284" stroke-miterlimit="10"/>
<path d="M137.42 35.7217V40.4544C137.421 40.512 137.435 40.5688 137.461 40.6198C137.488 40.6712 137.526 40.7154 137.572 40.7493C137.619 40.7833 137.673 40.8056 137.73 40.815C137.787 40.8241 137.845 40.8198 137.9 40.8024C138.272 40.6792 138.614 40.4789 138.904 40.2147" stroke="black" stroke-width="3.03284" stroke-miterlimit="10"/>
<path d="M134.59 39.3147C136.083 38.7327 136.637 36.5783 135.828 34.5027C135.018 32.427 133.152 31.2163 131.659 31.7983C130.166 32.3802 129.612 34.5346 130.422 36.6103C131.231 38.6859 133.097 39.8966 134.59 39.3147Z" stroke="black" stroke-width="3.03284" stroke-miterlimit="10"/>
<path d="M143.573 40.6682C145.066 40.0862 145.62 37.9318 144.811 35.8562C144.002 33.7805 142.136 32.5698 140.643 33.1518C139.15 33.7338 138.596 35.8884 139.405 37.9638C140.214 40.0395 142.081 41.2504 143.573 40.6682Z" stroke="black" stroke-width="3.03284" stroke-miterlimit="10"/>
<path d="M136.164 35.9678C136.164 35.9678 137.048 34.9579 138.902 36.1418" stroke="black" stroke-width="3.03284" stroke-miterlimit="10"/>
<path d="M141.608 46.8564C141.608 46.8564 142.25 49.0302 144.138 56.0765" stroke="black" stroke-width="3.03284" stroke-miterlimit="10"/>
<path d="M94.3257 252.781L105.451 246.776C106.089 246.43 106.632 245.934 107.035 245.331C107.437 244.727 107.686 244.034 107.759 243.313C109.608 225.155 109.043 213.676 109.043 213.676" stroke="black" stroke-width="3.03284" stroke-miterlimit="10"/>
<path d="M84.2274 159.662L41.4106 129.739" stroke="black" stroke-width="3.03284" stroke-miterlimit="10"/>
<path d="M81.8026 167.906L41.4106 139.676" stroke="black" stroke-width="3.03284" stroke-miterlimit="10"/>
<path d="M245.588 111.031V135.528C245.588 136.651 245.262 137.75 244.649 138.691C244.036 139.633 243.163 140.376 242.136 140.831L211.755 154.284L202.466 168.4C202.227 168.75 201.883 169.015 201.483 169.156C201.084 169.298 200.649 169.308 200.243 169.187C199.837 169.065 199.481 168.817 199.225 168.479C198.969 168.141 198.827 167.731 198.82 167.307V160.016L195.705 161.393C195.012 161.696 194.255 161.823 193.501 161.76C192.748 161.698 192.021 161.45 191.387 161.037C190.753 160.625 190.232 160.062 189.869 159.398C189.507 158.734 189.316 157.99 189.312 157.234V136.777C189.312 134.226 190.059 131.73 191.459 129.597C192.86 127.464 194.853 125.787 197.194 124.773L238.947 106.672C239.67 106.358 240.459 106.229 241.244 106.297C242.029 106.364 242.786 106.626 243.444 107.058C244.103 107.491 244.644 108.08 245.018 108.774C245.393 109.467 245.588 110.243 245.588 111.031Z" fill="#3F0A72"/>
<path d="M208.318 143.05C209.814 140.163 209.409 136.984 207.413 135.949C205.417 134.914 202.586 136.416 201.089 139.303C199.593 142.19 199.998 145.369 201.994 146.404C203.99 147.439 206.821 145.937 208.318 143.05Z" fill="white"/>
<path d="M221.293 137.496C222.79 134.608 222.385 131.429 220.389 130.394C218.393 129.36 215.561 130.861 214.065 133.748C212.568 136.636 212.973 139.815 214.969 140.849C216.965 141.884 219.797 140.382 221.293 137.496Z" fill="white"/>
<path d="M233.832 131.498C235.329 128.611 234.924 125.432 232.928 124.397C230.932 123.363 228.1 124.864 226.604 127.751C225.107 130.638 225.512 133.818 227.509 134.852C229.505 135.887 232.336 134.385 233.832 131.498Z" fill="white"/>
</svg>
